<svg xmlns="http://www.w3.org/2000/svg" viewBox="0 0 416.21 416.22"><defs><style>.cls-1{fill:#51c8e7;}.cls-2{fill:#7fc780;}.cls-3{fill:#4cc8f2;}.cls-4{fill:#5f94d2;}.cls-5{fill:#52b9e9;}.cls-6{fill:#677ec4;}.cls-7{fill:#625baa;}.cls-8{fill:#6fc7a4;}.cls-9{fill:#51bae9;}</style></defs><g id="Layer_2" data-name="Layer 2"><g id="Layer_1-2" data-name="Layer 1"><polygon class="cls-1" points="290.69 259.99 354.63 347.77 284.82 277.03 241.32 282.9 242.51 272.74 290.69 259.99"/><polygon class="cls-2" points="357.34 68.43 308.93 157.62 308.92 157.62 233.9 191.79 357.34 68.43"/><polygon class="cls-2" points="347.79 58.88 224.44 182.32 224.43 182.31 258.59 107.3 258.59 107.29 347.79 58.88"/><polygon class="cls-3" points="156.23 125.53 143.48 173.7 133.32 174.9 139.19 131.4 68.45 61.58 156.23 125.53"/><polygon class="cls-4" points="180.52 189.88 187.89 218.89 70.18 336.68 73.69 203.14 91.23 185.59 64.04 100.69 131.98 188.91 151.31 186.98 151.47 188.58 180.52 189.88"/><polygon class="cls-4" points="315.52 352.18 230.62 324.98 213.08 342.53 79.54 346.04 197.33 228.33 226.33 235.7 227.64 264.74 229.24 264.9 227.31 284.24 315.52 352.18"/><polygon class="cls-5" points="284.82 277.03 354.63 347.77 329.44 352.69 241.32 282.9 284.82 277.03"/><polygon class="cls-3" points="229.26 264.74 229.24 264.9 227.64 264.74 226.33 235.7 197.33 228.33 233.9 191.79 308.92 157.62 308.93 157.62 255.97 255.19 229.26 264.74"/><polygon class="cls-3" points="258.59 107.3 224.43 182.31 224.44 182.32 187.89 218.89 180.52 189.88 151.47 188.58 151.31 186.98 151.47 186.96 161.03 160.25 258.59 107.3"/><path class="cls-6" d="M230.62,325l84.9,27.2c-73.4,16.47-171,24.37-236-6.14l133.54-3.51Z"/><path class="cls-6" d="M73.69,203.14,70.18,336.68c-30.51-65-22.61-162.59-6.14-236l27.19,84.9Z"/><path class="cls-7" d="M58.19,346.91,9.06,396,0,325l12.28-5.85c11-99.13,27.49-124,27.49-124C29.53,254.9,44.45,325.18,58.19,346.91Z"/><polygon class="cls-8" points="416.21 12.68 324.78 290.87 296.13 248.17 267.47 255 372.93 55.95 416.21 12.68"/><path class="cls-7" d="M221.07,376.45s-24.86,16.47-124,27.49l-5.85,12.28-71.05-9.07L69.3,358C91,371.77,161.32,386.68,221.07,376.45Z"/><polygon class="cls-9" points="139.19 131.4 133.32 174.9 63.53 86.78 68.45 61.58 139.19 131.4"/><polygon class="cls-8" points="403.54 0 360.26 43.28 161.22 148.75 168.04 120.09 125.35 91.43 403.54 0"/></g></g></svg>